<?xml version="1.0" encoding="utf-8"?>
<!-- Generator: Adobe Illustrator 25.2.1, SVG Export Plug-In . SVG Version: 6.00 Build 0)  -->
<svg version="1.1" id="レイヤー_1" xmlns="http://www.w3.org/2000/svg" xmlns:xlink="http://www.w3.org/1999/xlink" x="0px"
	 y="0px" viewBox="0 0 372.9 114" style="enable-background:new 0 0 372.9 114;" xml:space="preserve">
<style type="text/css">
	.st0{fill:#48BED5;}
</style>
<g>
	<g>
		<path class="st0" d="M21.4,84.9h39.3c2.8,0,4.8-2,4.8-4.8c0-2.5-2-4.5-4.8-4.5H37.8c-9.9,0-18.1-7.9-18.1-18.1
			c0-9.6,8.2-18.1,18.1-18.1h35v13.3H39.2c-2.5,0-4.8,2-4.8,4.5c0,2.8,2,4.8,4.8,4.8h22.9c9.9,0,18.1,7.6,18.1,18.1
			c0,9.3-8.2,18.1-18.1,18.1H21.4V84.9z"/>
		<path class="st0" d="M62.1,99.6H21.4c-0.8,0-1.4-0.6-1.4-1.4V84.9c0-0.8,0.6-1.4,1.4-1.4h39.3c2.1,0,3.4-1.3,3.4-3.4
			c0-1.8-1.4-3.1-3.4-3.1H37.8c-10.8,0-19.5-8.7-19.5-19.5c0-10.6,8.9-19.5,19.5-19.5h35c0.8,0,1.4,0.6,1.4,1.4v13.3
			c0,0.8-0.6,1.4-1.4,1.4H39.2c-1.8,0-3.4,1.4-3.4,3.1c0,2.1,1.3,3.4,3.4,3.4h22.9c10.9,0,19.5,8.6,19.5,19.5
			C81.6,90.5,72.5,99.6,62.1,99.6z M22.8,96.8h39.3c8.9,0,16.7-7.8,16.7-16.7c0-9.3-7.3-16.7-16.7-16.7H39.2c-3.6,0-6.2-2.6-6.2-6.2
			c0-3.3,2.8-5.9,6.2-5.9h32.2V40.8H37.8c-9,0-16.7,7.6-16.7,16.7c0,9.2,7.5,16.7,16.7,16.7h22.9c3.5,0,6.2,2.6,6.2,5.9
			c0,3.6-2.6,6.2-6.2,6.2H22.8V96.8z"/>
	</g>
	<g>
		<path class="st0" d="M93.5,54.1h-7.9V39.4h7.9V14.8h15.8v24.6h7.9v14.7h-7.9v44.1H93.5V54.1z"/>
		<path class="st0" d="M109.3,99.6H93.5c-0.8,0-1.4-0.6-1.4-1.4V55.5h-6.5c-0.8,0-1.4-0.6-1.4-1.4V39.4c0-0.8,0.6-1.4,1.4-1.4h6.5
			V14.8c0-0.8,0.6-1.4,1.4-1.4h15.8c0.8,0,1.4,0.6,1.4,1.4V38h6.5c0.8,0,1.4,0.6,1.4,1.4v14.7c0,0.8-0.6,1.4-1.4,1.4h-6.5v42.7
			C110.7,99,110.1,99.6,109.3,99.6z M94.9,96.8h13V54.1c0-0.8,0.6-1.4,1.4-1.4h6.5V40.8h-6.5c-0.8,0-1.4-0.6-1.4-1.4V16.2h-13v23.2
			c0,0.8-0.6,1.4-1.4,1.4H87v11.9h6.5c0.8,0,1.4,0.6,1.4,1.4V96.8z"/>
	</g>
	<g>
		<path class="st0" d="M125.4,23c0-5.4,4.5-9.6,9.9-9.6s9.6,4.2,9.6,9.6c0,5.4-4.2,9.9-9.6,9.9S125.4,28.4,125.4,23z M127.1,39.4
			h15.8v58.8h-15.8V39.4z"/>
		<path class="st0" d="M142.9,99.6h-15.8c-0.8,0-1.4-0.6-1.4-1.4V39.4c0-0.8,0.6-1.4,1.4-1.4h15.8c0.8,0,1.4,0.6,1.4,1.4v58.8
			C144.3,99,143.7,99.6,142.9,99.6z M128.5,96.8h13V40.8h-13V96.8z M135.3,34.3c-6.1,0-11.3-5.2-11.3-11.3c0-6.1,5.1-11,11.3-11
			c6.2,0,11,4.8,11,11C146.3,29.3,141.4,34.3,135.3,34.3z M135.3,14.8c-4.7,0-8.5,3.7-8.5,8.2c0,4.6,3.9,8.5,8.5,8.5
			c4.5,0,8.2-3.8,8.2-8.5C143.5,18.4,139.9,14.8,135.3,14.8z"/>
	</g>
	<g>
		<path class="st0" d="M157.9,14.8h15.8v83.3h-15.8V14.8z"/>
		<path class="st0" d="M173.7,99.6h-15.8c-0.8,0-1.4-0.6-1.4-1.4V14.8c0-0.8,0.6-1.4,1.4-1.4h15.8c0.8,0,1.4,0.6,1.4,1.4v83.3
			C175.1,99,174.5,99.6,173.7,99.6z M159.3,96.8h13V16.2h-13V96.8z"/>
	</g>
	<g>
		<path class="st0" d="M188.1,14.8H204v83.3h-15.8V14.8z"/>
		<path class="st0" d="M204,99.6h-15.8c-0.8,0-1.4-0.6-1.4-1.4V14.8c0-0.8,0.6-1.4,1.4-1.4H204c0.8,0,1.4,0.6,1.4,1.4v83.3
			C205.4,99,204.7,99.6,204,99.6z M189.5,96.8h13V16.2h-13V96.8z"/>
	</g>
	<g>
		<path class="st0" d="M215,68.8c0-17,14.7-30.8,31.6-30.8c18.4,0,31.6,12.4,31.6,30.8v29.4h-15.5v-5.1c-3.7,4-10.2,6.5-17.5,6.5
			C227.4,99.6,215,87.2,215,68.8z M262.4,68.8c0-9.3-6.5-16.1-15.8-16.1c-9,0-15.8,6.8-15.8,16.1c0,9,6.8,16.1,15.8,16.1
			C255.9,84.9,262.4,77.8,262.4,68.8z"/>
		<path class="st0" d="M245.2,101c-18.6,0-31.6-13.2-31.6-32.2c0-17.5,15.1-32.2,33.1-32.2c19.5,0,33.1,13.2,33.1,32.2v29.4
			c0,0.8-0.6,1.4-1.4,1.4h-15.5c-0.8,0-1.4-0.6-1.4-1.4v-1.9C257.2,99.3,251.4,101,245.2,101z M246.6,39.4
			c-16.4,0-30.2,13.5-30.2,29.4c0,17.6,11.6,29.4,28.8,29.4c6.8,0,13-2.3,16.5-6c0.4-0.4,1-0.6,1.6-0.4c0.5,0.2,0.9,0.7,0.9,1.3v3.7
			h12.7v-28C276.8,51.5,264.4,39.4,246.6,39.4z M246.6,86.3c-9.7,0-17.2-7.7-17.2-17.5c0-10,7.4-17.5,17.2-17.5
			c10,0,17.2,7.4,17.2,17.5C263.8,78.8,256.4,86.3,246.6,86.3z M246.6,54.1c-8.3,0-14.4,6.2-14.4,14.7c0,8.4,6.2,14.7,14.4,14.7
			c8.3,0,14.4-6.2,14.4-14.7C261,60.1,255.1,54.1,246.6,54.1z"/>
	</g>
	<g>
		<path class="st0" d="M288.7,61.4c0-13,9.3-22,22-22h5.7v14.7h-4.5c-4.2,0-7.3,2.8-7.3,7.3v36.7h-15.8V61.4z"/>
		<path class="st0" d="M304.5,99.6h-15.8c-0.8,0-1.4-0.6-1.4-1.4V61.4c0-13.6,9.9-23.5,23.5-23.5h5.7c0.8,0,1.4,0.6,1.4,1.4v14.7
			c0,0.8-0.6,1.4-1.4,1.4h-4.5c-3.6,0-5.9,2.3-5.9,5.9v36.7C306,99,305.3,99.6,304.5,99.6z M290.1,96.8h13V61.4
			c0-5.2,3.6-8.8,8.8-8.8h3.1V40.8h-4.2c-12.1,0-20.6,8.5-20.6,20.6V96.8z"/>
	</g>
	<g>
		<path class="st0" d="M329.1,54.1h-7.9V39.4h7.9V14.8h15.8v24.6h7.9v14.7h-7.9v44.1h-15.8V54.1z"/>
		<path class="st0" d="M344.9,99.6h-15.8c-0.8,0-1.4-0.6-1.4-1.4V55.5h-6.5c-0.8,0-1.4-0.6-1.4-1.4V39.4c0-0.8,0.6-1.4,1.4-1.4h6.5
			V14.8c0-0.8,0.6-1.4,1.4-1.4h15.8c0.8,0,1.4,0.6,1.4,1.4V38h6.5c0.8,0,1.4,0.6,1.4,1.4v14.7c0,0.8-0.6,1.4-1.4,1.4h-6.5v42.7
			C346.4,99,345.7,99.6,344.9,99.6z M330.5,96.8h13V54.1c0-0.8,0.6-1.4,1.4-1.4h6.5V40.8h-6.5c-0.8,0-1.4-0.6-1.4-1.4V16.2h-13v23.2
			c0,0.8-0.6,1.4-1.4,1.4h-6.5v11.9h6.5c0.8,0,1.4,0.6,1.4,1.4V96.8z"/>
	</g>
</g>
</svg>
